<svg viewBox="0 0 20 20" fill="none" xmlns="http://www.w3.org/2000/svg" class="w-5"><path d="M9.06121 16.0832L3.56121 10.5832C3.47788 10.4999 3.41871 10.4096 3.38371 10.3124C3.34871 10.2152 3.33149 10.111 3.33204 9.99989C3.33204 9.88878 3.34954 9.78461 3.38454 9.68739C3.41954 9.59017 3.47843 9.49989 3.56121 9.41655L9.06121 3.91655C9.21399 3.76378 9.4051 3.68405 9.63454 3.67739C9.86399 3.67072 10.0618 3.75044 10.2279 3.91655C10.3945 4.06933 10.4815 4.26044 10.4887 4.48989C10.4959 4.71933 10.4159 4.91711 10.2487 5.08322L6.16538 9.16655H15.4779C15.714 9.16655 15.912 9.24655 16.072 9.40655C16.232 9.56655 16.3118 9.76433 16.3112 9.99989C16.3112 10.236 16.2315 10.4341 16.072 10.5941C15.9126 10.7541 15.7145 10.8338 15.4779 10.8332H6.16538L10.2487 14.9166C10.4015 15.0693 10.4815 15.2638 10.4887 15.4999C10.4959 15.736 10.4159 15.9304 10.2487 16.0832C10.0959 16.2499 9.90149 16.3332 9.66538 16.3332C9.42927 16.3332 9.22788 16.2499 9.06121 16.0832Z" fill="white"></path></svg>