<svg xmlns="http://www.w3.org/2000/svg" width="25" height="24" fill="none"><path fill="url(#a)" d="M22.97.094c-.088.046-1.415 1.34-2.948 2.873-2.747 2.752-2.78 2.789-2.672 2.855l.558.332c.244.146.478.286.516.315.056.037-.188.304-1.228 1.345l-1.299 1.303.164.258c.253.384.483.905.62 1.406.112.399.126.525.126 1.219 0 .698-.014.82-.132 1.233-.618 2.226-2.643 3.703-4.926 3.58a6.213 6.213 0 0 1-.919-.126c-.431-.112-1.139-.422-1.486-.656l-.215-.15-1.168 1.167c-.637.638-1.162 1.177-1.162 1.19 0 .043 1.05.53 1.551.718.6.22 1.308.422 1.941.549.647.126 2.081.173 2.77.093 3.057-.36 6.249-2.208 9.207-5.325.81-.858 1.509-1.687 1.659-1.978.16-.314.089-.53-.337-1.069-.924-1.167-2.387-2.639-3.535-3.562-.53-.422-1.294-.99-1.49-1.102-.057-.033.534-.651 2.61-2.728 1.472-1.476 2.71-2.751 2.752-2.836a.691.691 0 0 0-.3-.904.656.656 0 0 0-.656 0Z"></path><path fill="url(#b)" d="M10.83 4.41c-2.766.357-5.695 1.97-8.438 4.65a24.19 24.19 0 0 0-1.898 2.073c-.642.797-.647.928-.08 1.64.853 1.079 2.175 2.424 3.29 3.357.479.398 1.51 1.18 1.726 1.307.065.033-.375.502-2.602 2.729C1.356 21.642.118 22.917.077 23a.69.69 0 0 0 .3.905.65.65 0 0 0 .647.005c.093-.052 1.425-1.346 2.957-2.878 2.757-2.761 2.78-2.79 2.672-2.86-.06-.037-.333-.196-.604-.36-.272-.16-.502-.3-.516-.31-.01-.014.562-.605 1.28-1.322l1.293-1.298-.192-.305a5.315 5.315 0 0 1-.61-1.406c-.088-.342-.107-.511-.107-1.172 0-.694.014-.82.127-1.219.234-.844.586-1.472 1.167-2.081 1.495-1.575 3.75-1.974 5.69-1.003.207.103.446.239.535.304l.155.122 1.167-1.167c.642-.642 1.167-1.181 1.167-1.195 0-.047-1.069-.535-1.617-.736a10.468 10.468 0 0 0-2.461-.619c-.455-.056-1.847-.051-2.297.005Z"></path><path fill="#fff" stroke="url(#c)" d="m13.266 9.312-.003-.001a3.621 3.621 0 0 0-.606-.217c-.373-.082-1.006-.077-1.37.012a3.188 3.188 0 0 0-1.6 1.009 3.207 3.207 0 0 0-.349.582 3.197 3.197 0 0 0-.241.645c-.079.36-.079.953 0 1.314a3.9 3.9 0 0 0 .238.65 2.756 2.756 0 0 0 1.36 1.361c.45.216.821.302 1.307.302.485 0 .856-.086 1.306-.302a2.756 2.756 0 0 0 1.36-1.361c.217-.45.302-.82.302-1.306 0-.485-.085-.856-.301-1.305a2.8 2.8 0 0 0-1.403-1.383Z"></path><defs><linearGradient id="a" x1="18.169" x2="-3.591" y1="-16.878" y2="-11.245" gradientUnits="userSpaceOnUse"><stop offset=".062" stop-color="#AB090E"></stop><stop offset=".349" stop-color="#CB0F15"></stop></linearGradient><linearGradient id="b" x1="11.369" x2="-10.389" y1="-12.514" y2="-6.882" gradientUnits="userSpaceOnUse"><stop offset=".062" stop-color="#AB090E"></stop><stop offset=".349" stop-color="#CB0F15"></stop></linearGradient><linearGradient id="c" x1="13.119" x2="4.514" y1="2.573" y2="5.115" gradientUnits="userSpaceOnUse"><stop offset=".062" stop-color="#AB090E"></stop><stop offset=".349" stop-color="#CB0F15"></stop></linearGradient></defs></svg>