<svg xmlns="http://www.w3.org/2000/svg" width="21" height="20" fill="none"><path fill="url(#a)" d="M1.466 18.535C2.931 20 5.288 20 10.002 20c4.714 0 7.071 0 8.536-1.465 1.464-1.464 1.464-3.821 1.464-8.535s0-7.071-1.464-8.536C17.073 0 14.716 0 10.002 0 5.288 0 2.931 0 1.466 1.464.002 2.93.002 5.286.002 10c0 4.714 0 7.071 1.464 8.535Z"></path><path fill="#fff" fill-rule="evenodd" d="M10.002 5.25a.75.75 0 0 1 .75.75v3.69l2.28 2.28a.75.75 0 1 1-1.06 1.06l-2.5-2.5a.75.75 0 0 1-.22-.53V6a.75.75 0 0 1 .75-.75Z" clip-rule="evenodd"></path><defs><linearGradient id="a" x1="13.218" x2="-11.604" y1="37.2" y2="29.869" gradientUnits="userSpaceOnUse"><stop offset=".062" stop-color="#AB090E"></stop><stop offset=".349" stop-color="#CB0F15"></stop></linearGradient></defs></svg>