<svg xmlns="http://www.w3.org/2000/svg" width="18" height="21" fill="none"><path fill="url(#a)" fill-rule="evenodd" d="M.002 3v14.823A3.182 3.182 0 0 0 3.189 21h10.626a3.182 3.182 0 0 0 3.187-3.177V7.236a3.182 3.182 0 0 0-3.187-3.176H1.065A1.06 1.06 0 0 1 .001 3Zm3.453 7.412c0-.439.357-.794.797-.794h8.5c.44 0 .797.355.797.794a.795.795 0 0 1-.797.794h-8.5a.796.796 0 0 1-.797-.794Zm0 3.706c0-.439.357-.795.797-.795h5.844a.796.796 0 1 1 0 1.588H4.252a.796.796 0 0 1-.797-.793Z" clip-rule="evenodd"></path><path fill="#fff" d="M4.252 9.618a.796.796 0 0 0-.797.794c0 .438.357.794.797.794h8.5c.44 0 .797-.356.797-.794a.795.795 0 0 0-.797-.794h-8.5ZM4.252 13.323a.796.796 0 0 0-.797.795c0 .438.357.794.797.794h5.844c.44 0 .797-.356.797-.794a.796.796 0 0 0-.797-.795H4.252Z"></path><path fill="url(#b)" d="M15.002 2.07V4a3.312 3.312 0 0 0-1.072-.177H1.074C.482 3.823.002 3.36.002 2.788v-.073c0-.552.42-1.02.985-1.097L12.556.02c1.291-.178 2.446.79 2.446 2.05Z"></path><defs><linearGradient id="a" x1="11.236" x2="-10.048" y1="36.48" y2="30.544" gradientUnits="userSpaceOnUse"><stop offset=".062" stop-color="#AB090E"></stop><stop offset=".349" stop-color="#CB0F15"></stop></linearGradient><linearGradient id="b" x1="9.914" x2=".823" y1="7.44" y2="-2.628" gradientUnits="userSpaceOnUse"><stop offset=".062" stop-color="#AB090E"></stop><stop offset=".349" stop-color="#CB0F15"></stop></linearGradient></defs></svg>