<svg width="100%" viewBox="0 0 160 133" fill="none" xmlns="http://www.w3.org/2000/svg" class="min-h-[133px] w-[160px]"><g id="download (32) 1" clip-path="url(#clip0_10150_20345)"><g id="Layer 1"><path id="Vector" style="mix-blend-mode:multiply;" d="M14.2398 94.0002L53.3598 116.2C53.4856 116.274 53.6289 116.313 53.7748 116.313C53.9207 116.313 54.0639 116.274 54.1898 116.2L86.1898 96.9202L46.1298 74.2102L14.2498 92.5502C14.1174 92.619 14.0063 92.7225 13.9285 92.8498C13.8506 92.977 13.8089 93.123 13.8079 93.2722C13.8069 93.4213 13.8465 93.568 13.9226 93.6962C13.9987 93.8245 14.1084 93.9296 14.2398 94.0002Z" fill="url(#paint0_linear_10150_20345)"></path><path id="Vector_2" style="mix-blend-mode:multiply;" d="M40.4902 74.1901L105.86 111.28C106.071 111.403 106.311 111.468 106.555 111.468C106.799 111.468 107.039 111.403 107.25 111.28L160 79.5301L93.7802 41.1501L40.5002 71.7901C40.2901 71.9118 40.1156 72.0863 39.9939 72.2963C39.8722 72.5063 39.8077 72.7446 39.8067 72.9873C39.8056 73.23 39.8682 73.4688 39.9881 73.6798C40.108 73.8908 40.2811 74.0668 40.4902 74.1901Z" fill="url(#paint1_linear_10150_20345)"></path><path id="Vector_3" d="M70.6898 95.1302L74.2798 103.68C75.3309 104.285 76.5222 104.603 77.7348 104.603C78.9473 104.603 80.1387 104.285 81.1898 103.68L89.1198 99.2902C89.1198 99.2902 69.8498 94.6402 70.6898 95.1302Z" fill="#383838"></path><path id="Vector_4" d="M80.3092 103.25L81.4092 103.59L81.5192 93.8401L80.8592 93.4001L56.6992 79.8101L80.3092 103.25Z" fill="#383838"></path><path id="Vector_5" d="M80.31 103.24L56.03 89.4401V79.3701L80.31 93.5101V103.24ZM49.21 94.0001V94.3401C49.2112 94.8191 49.3385 95.2893 49.5789 95.7036C49.8194 96.1178 50.1646 96.4615 50.58 96.7001L68.64 106.86C69.6911 107.465 70.8824 107.783 72.095 107.783C73.3075 107.783 74.4989 107.465 75.55 106.86L81.41 103.59L80.31 103.25H79.81L49.21 94.0001Z" fill="#383838"></path><path id="Vector_6" d="M49.9098 95.2302L69.1498 106.13C70.0474 106.646 71.0645 106.918 72.0998 106.918C73.135 106.918 74.1522 106.646 75.0498 106.13L80.3098 103.25L55.9998 89.4402L49.8698 92.8102C49.6601 92.9368 49.4873 93.1163 49.3687 93.3307C49.25 93.545 49.1897 93.7867 49.1938 94.0317C49.1978 94.2766 49.2661 94.5162 49.3917 94.7265C49.5174 94.9369 49.696 95.1105 49.9098 95.2302Z" fill="#969A9F"></path><path id="Vector_7" d="M72.0997 107C71.0468 107.001 70.0122 106.725 69.0997 106.2L49.8597 95.3201C49.6288 95.1893 49.4368 94.9996 49.3032 94.7703C49.1696 94.5411 49.0993 94.2805 49.0993 94.0151C49.0993 93.7498 49.1696 93.4892 49.3032 93.2599C49.4368 93.0307 49.6288 92.8409 49.8597 92.7101L55.9997 89.3101H56.0497L80.4997 103.22L75.0597 106.22C74.1581 106.734 73.1375 107.003 72.0997 107ZM49.9997 95.1301L69.1997 106C70.0817 106.508 71.0818 106.776 72.0997 106.776C73.1176 106.776 74.1176 106.508 74.9997 106L80.0997 103.22L55.9997 89.5601L49.9997 92.9001C49.8002 93.0082 49.6325 93.1666 49.5132 93.3596C49.3939 93.5525 49.3272 93.7734 49.3197 94.0001C49.3198 94.2324 49.3832 94.4604 49.5029 94.6594C49.6227 94.8585 49.7945 95.0212 49.9997 95.1301ZM53.9997 14.5201L110.81 48.0801C115.2 50.4801 114.81 54.0801 114.45 58.0801L108.28 106.89C108 111.34 106.18 112.03 106.18 112.03L48.9997 79.2401C46.4097 77.7401 44.5597 73.2401 44.8897 69.2401L49.1297 14.2401C50.1162 14.0247 51.1204 13.9009 52.1297 13.8701C52.795 13.9387 53.4352 14.1613 53.9997 14.5201Z" fill="#383838"></path><path id="Vector_8" d="M39.21 73.5302L46.21 19.2102C46.43 16.0002 48 14.0002 50 14.1702C50.5049 14.2222 50.9926 14.3825 51.43 14.6402L109 48.0902C113.74 50.6902 113.43 54.0902 113.11 58.0902L106.11 112.09L39.21 73.5302Z" fill="#969A9F"></path><path id="Vector_9" d="M106.23 112.21L106.09 112.13L39.0896 73.5902V73.5202L46.0896 19.1902C46.1092 17.5248 46.7763 15.9324 47.9496 14.7502C48.2285 14.505 48.5533 14.3177 48.9053 14.1993C49.2572 14.0808 49.6292 14.0335 49.9996 14.0602C50.5239 14.1085 51.0301 14.2761 51.4796 14.5502L109.07 48.0002C113.83 50.6202 113.56 54.0002 113.24 58.0002V58.0902L106.23 112.21ZM39.3296 73.4702L106.06 111.86L113.06 58.0602V58.0002C113.38 54.0002 113.64 50.7502 109 48.2102L51.3996 14.7402C50.9734 14.4836 50.4949 14.3264 49.9996 14.2802C49.6483 14.2507 49.2946 14.2922 48.9596 14.4021C48.6246 14.5121 48.3151 14.6883 48.0496 14.9202C46.9174 16.062 46.2783 17.6023 46.2696 19.2102L39.3296 73.4702Z" fill="#383838"></path><path id="Vector_10" d="M41.4102 66.5202L106.08 104.1L112.2 58.8302C112.48 55.1502 112 52.4102 108.81 50.5602L50.4902 16.6802C50.101 16.4412 49.6417 16.3426 49.1887 16.4008C48.7357 16.4591 48.3163 16.6706 48.0002 17.0002C47.6821 17.3298 47.4818 17.7551 47.4302 18.2102L41.4102 66.5202Z" fill="white"></path><path id="Vector_11" d="M106.17 104.28L106.03 104.2L41.29 66.58V66.51L47.35 18.2C47.391 17.8471 47.5189 17.5098 47.7221 17.2184C47.9253 16.9269 48.1976 16.6904 48.5146 16.5299C48.8316 16.3694 49.1834 16.29 49.5386 16.2987C49.8938 16.3075 50.2413 16.4041 50.55 16.58L108.87 50.46C112.11 52.35 112.59 55.17 112.31 58.84L106.17 104.28ZM41.53 66.47L106 103.93L112.09 58.81C112.37 55.14 111.91 52.49 108.75 50.65L50.44 16.77C50.163 16.61 49.8504 16.5216 49.5306 16.5131C49.2108 16.5045 48.8939 16.5761 48.6088 16.7211C48.3236 16.8662 48.0793 17.0802 47.8979 17.3437C47.7164 17.6072 47.6038 17.9119 47.57 18.23L41.53 66.47Z" fill="#383838"></path><path id="Vector_12" d="M43.6296 62.5801L48.7596 22.6501L110.05 58.0301L104.68 97.8601L43.6296 62.5801Z" fill="#969A9F"></path><path id="Vector_13" d="M48.8198 22.76L110 58.07L104.65 97.75L43.7098 62.54L48.8198 22.76ZM48.6998 22.53L43.5498 62.61L104.73 98L110.13 58L48.6998 22.53Z" fill="#383838"></path><path id="Vector_14" opacity="0.6" d="M59.1201 68.3502L54.8301 67.8002L59.3301 34.9202L63.6101 35.4802L59.1201 68.3502ZM93.4001 87.0602L89.1201 86.5102L93.6101 53.6302L97.9001 54.1802L93.4001 87.0602Z" fill="#383838"></path><path id="Vector_15" d="M47.7598 30.59L108.94 65.96L110.13 57.99L48.6998 22.53L47.7598 30.59Z" fill="#383838"></path><path id="Vector_16" d="M49.0896 30.1601L49.7096 24.8901L54.1296 27.4501L53.3496 32.6501L49.0896 30.1601Z" fill="white"></path><path id="Vector_17" d="M49.77 25L54.05 27.48L53.3 32.48L49.17 30.07L49.77 24.96V25ZM49.65 24.76L49 30.2L53.4 32.77L54.2 27.41L49.64 24.77L49.65 24.76Z" fill="#383838"></path><path id="Vector_18" d="M55.8796 34.0801L56.4896 28.8201L60.9196 31.3701L60.1396 36.5701L55.8796 34.0801Z" fill="white"></path><path id="Vector_19" d="M56.5598 28.9402L60.8398 31.4102L60.0898 36.4102L55.9998 34.0002L56.6098 28.9002L56.5598 28.9402ZM56.4398 28.7002L55.7998 34.1202L60.1998 36.6902L60.9998 31.3302L56.4398 28.7002Z" fill="#383838"></path><path id="Vector_20" d="M62.6602 38.0102L63.2802 32.7402L67.7102 35.3002L66.9302 40.5002L62.6602 38.0102Z" fill="white"></path><path id="Vector_21" d="M63.3401 32.8601L67.6301 35.3301L66.8801 40.3801L62.7401 38.0001L63.3401 32.8901V32.8601ZM63.2201 32.6201L62.5801 38.0501L67.0001 40.6101L67.8001 35.2601L63.2301 32.6201H63.2201Z" fill="#383838"></path><path id="Vector_22" d="M69.4492 41.9302L70.0692 36.6702L74.4992 39.2202L73.7192 44.4202L69.4492 41.9302Z" fill="white"></path><path id="Vector_23" d="M70.1296 36.7901L74.4196 39.26L73.6696 44.26L69.5296 41.85L70.1296 36.75V36.7901ZM69.9996 36.55L69.3796 42L73.7796 44.57L74.5796 39.21L69.9996 36.55Z" fill="#383838"></path><path id="Vector_24" d="M76.2393 45.8501L76.8593 40.5901L81.2893 43.1401L80.5093 48.3401L76.2393 45.8501Z" fill="white"></path><path id="Vector_25" d="M76.9202 40.7102L81.2102 43.1802L80.4501 48.1802L76.3202 45.7702L76.9202 40.6602V40.7102ZM76.8002 40.4702L76.1602 45.8902L80.5702 48.4602L81.3702 43.1102L76.8002 40.4702Z" fill="#383838"></path><path id="Vector_26" d="M83.0293 49.78L83.6493 44.51L88.0793 47.07L87.2993 52.27L83.0293 49.78Z" fill="white"></path><path id="Vector_27" d="M83.71 44.6301L88 47.1101L87.24 52.1101L83.11 49.7001L83.71 44.5901V44.6301ZM83.59 44.3901L83 49.8201L87.41 52.3901L88.21 47.0301L83.64 44.3901H83.59Z" fill="#383838"></path><path id="Vector_28" d="M89.8193 53.7002L90.4393 48.4402L94.8693 50.9902L94.0893 56.1902L89.8193 53.7002Z" fill="white"></path><path id="Vector_29" d="M90.4993 48.5601L94.7893 51.0001L94.0293 56.0001L89.8993 53.6601L90.4993 48.5601ZM90.3793 48.3201L89.7393 53.7401L94.1493 56.3101L94.9993 51.0001L90.4293 48.3701L90.3793 48.3201Z" fill="#383838"></path><path id="Vector_30" d="M96.6094 57.6301L97.2294 52.3601L101.659 54.9201L100.879 60.1201L96.6094 57.6301Z" fill="white"></path><path id="Vector_31" d="M97.2893 52.4802L101.579 55.0002L100.819 60.0002L96.6893 57.5902L97.2893 52.4802ZM97.1693 52.2402L96.5293 57.6702L100.939 60.2402L101.739 54.8802L97.1693 52.2402Z" fill="#383838"></path><path id="Vector_32" d="M103.399 61.55L104.019 56.29L108.449 58.84L107.669 64.04L103.399 61.55Z" fill="white"></path><path id="Vector_33" d="M104.08 56.4101L108.37 58.8801L107.61 63.8801L103.48 61.4701L104.08 56.3701V56.4101ZM103.96 56.1701L103.32 61.5901L107.73 64.1601L108.53 58.8001L104 56.1701H103.96ZM43.5498 62.6101L104.73 97.9801L105.82 89.9601L44.5798 54.6001L43.5498 62.6101Z" fill="#383838"></path><path id="Vector_34" d="M44.8994 61.82L45.5194 56.55L49.9494 59.1101L49.1694 64.31L44.8994 61.82Z" fill="white"></path><path id="Vector_35" d="M45.5793 56.6802L49.8693 59.1502L49.1093 64.1502L44.9993 61.7802L45.5993 56.6802H45.5793ZM45.4593 56.4402L44.8193 61.8602L49.2293 64.4302L50.0293 59.0702L45.4593 56.4402Z" fill="#383838"></path><path id="Vector_36" d="M51.6897 65.7402L52.3097 60.4802L56.7397 63.0302L55.9597 68.2302L51.6897 65.7402Z" fill="white"></path><path id="Vector_37" d="M52.3694 60.6001L56.6594 63.0701L55.8994 68.0701L51.7694 65.7001L52.3694 60.6001ZM52.2494 60.3601L51.6094 65.7801L55.9994 68.3501L56.8194 63.0001L52.2494 60.3701V60.3601Z" fill="#383838"></path><path id="Vector_38" d="M58.4797 69.6701L59.0997 64.4001L63.5197 66.9601L62.7497 72.1601L58.4797 69.6701Z" fill="white"></path><path id="Vector_39" d="M59.1594 64.52L63.4494 67L62.6894 72L58.5594 69.59L59.1594 64.48V64.52ZM58.9994 64.28L58.3594 69.71L62.7594 72.28L63.5694 66.92L58.9994 64.28Z" fill="#383838"></path><path id="Vector_40" d="M65.2698 73.5901L65.8898 68.3301L70.3098 70.8801L69.5398 76.0801L65.2698 73.5901Z" fill="white"></path><path id="Vector_41" d="M65.9993 68.4502L70.2793 70.9202L69.5293 75.9202L65.3993 73.5102L65.9993 68.4102V68.4502ZM65.8793 68.2102L65.2393 73.6302L69.6393 76.2002L70.4493 70.8402L65.8793 68.2102Z" fill="#383838"></path><path id="Vector_42" d="M72.0596 77.52L72.6796 72.25L77.1096 74.81L76.3296 80.01L72.0596 77.52Z" fill="white"></path><path id="Vector_43" d="M72.74 72.3701L77 74.8501L76.25 79.8501L72.12 77.4401L72.72 72.3301L72.74 72.3701ZM72.62 72.1301L72 77.5601L76.4 80.1301L77.21 74.7701L72.64 72.1301H72.62Z" fill="#383838"></path><path id="Vector_44" d="M78.8496 81.4402L79.4696 76.1802L83.8896 78.7302L83.1096 83.9302L78.8496 81.4402Z" fill="white"></path><path id="Vector_45" d="M79.5298 76.3001L83.8098 78.7701L83.0598 83.7701L78.9298 81.4001L79.5298 76.3001ZM79.4098 76.0601L78.7698 81.4801L83.1698 84.0501L83.9698 78.6901L79.4098 76.0601Z" fill="#383838"></path><path id="Vector_46" d="M85.6396 85.3701L86.2597 80.1001L90.6796 82.6601L89.8997 87.8501L85.6396 85.3701Z" fill="white"></path><path id="Vector_47" d="M86.3196 80.22L90.5996 82.69L89.8496 87.69L85.7096 85.28L86.3196 80.17V80.22ZM86.1996 80L85.5596 85.42L89.9996 88L90.7996 82.65L86.1996 80Z" fill="#383838"></path><path id="Vector_48" d="M92.4197 89.29L93.0497 84.03L97.4697 86.58L96.6897 91.78L92.4197 89.29Z" fill="white"></path><path id="Vector_49" d="M93.1094 84.1501L97.3894 86.6201L96.6394 91.6201L92.4994 89.2501L93.1094 84.1501ZM92.9994 83.9001L92.3594 89.3301L96.7594 91.9001L97.5594 86.5401L92.9994 83.9001Z" fill="#383838"></path><path id="Vector_50" d="M99.21 93.2102L99.83 87.9502L104.26 90.5002L103.48 95.7002L99.21 93.2102Z" fill="white"></path><path id="Vector_51" d="M99.8897 88.0702L104.18 90.5402L103.43 95.5402L99.2897 93.1302L99.8897 88.0302V88.0702ZM99.7697 87.8302L99.1397 93.2502L103.54 95.8202L104.34 90.4602L99.7697 87.8302ZM18.9197 89.6402C27.2397 86.1202 38.9997 87.1002 45.2797 91.8102C51.5597 96.5202 49.8297 103.2 41.5097 106.72C33.1897 110.24 21.3897 109.26 15.1497 104.54C8.90968 99.8202 10.5997 93.1502 18.9197 89.6402Z" fill="#383838"></path><path id="Vector_52" d="M19.0894 89.9402C27.1394 86.5302 38.5494 87.4602 44.5694 92.0202C50.5894 96.5802 48.9694 103.02 40.9194 106.44C32.8694 109.86 21.4694 108.91 15.4394 104.36C9.4094 99.8102 11.0494 93.3402 19.0894 89.9402Z" fill="#C1C8CC"></path><path id="Vector_53" d="M30.0601 108.57C24.4901 108.57 18.9801 107.14 15.3901 104.42C12.7401 102.42 11.4601 99.94 11.7701 97.42C12.1401 94.42 14.7701 91.63 19.0601 89.83C27.1201 86.42 38.5801 87.36 44.6201 91.93C47.2701 93.93 48.5601 96.4 48.2501 98.93C47.8701 101.93 45.2501 104.71 40.9501 106.52C37.4902 107.913 33.7896 108.609 30.0601 108.57ZM19.1201 90C14.9201 91.78 12.3001 94.5 11.9301 97.46C11.6301 99.89 12.9301 102.31 15.4901 104.28C21.4901 108.81 32.8801 109.75 40.8901 106.36C45.0901 104.58 47.7201 101.86 48.0801 98.9C48.3901 96.46 47.0801 94.04 44.5201 92.08C38.5201 87.54 27.1301 86.61 19.1201 90Z" fill="#383838"></path><path id="Vector_54" d="M22.3497 91.7901C27.9997 89.4001 35.9997 90.0501 40.2197 93.2501C44.4397 96.4501 43.2997 100.97 37.6597 103.36C32.0197 105.75 23.9997 105.09 19.7897 101.9C15.5797 98.7101 16.7097 94.1801 22.3497 91.7901Z" fill="#C4161C"></path><path id="Vector_55" d="M29.9997 99.8401C28.8409 99.8781 27.6987 99.5567 26.7297 98.9201C26.478 98.7621 26.273 98.5398 26.1359 98.2761C25.9987 98.0124 25.9345 97.7169 25.9497 97.4201C26.0495 97.0284 26.2495 96.6694 26.53 96.3783C26.8105 96.0873 27.1619 95.8742 27.5497 95.7601C28.3294 95.4523 29.1616 95.2995 29.9997 95.3101C31.1555 95.2709 32.2949 95.5924 33.2597 96.2301C33.5118 96.3884 33.7177 96.6105 33.8564 96.8739C33.9951 97.1373 34.0618 97.4326 34.0497 97.7301C33.9493 98.1204 33.7489 98.4778 33.4684 98.7671C33.1878 99.0565 32.8367 99.2677 32.4497 99.3801C31.6718 99.6951 30.8389 99.8515 29.9997 99.8401Z" fill="white"></path><path id="Vector_56" d="M29.9996 95.3601C31.1411 95.3236 32.266 95.6415 33.2196 96.2701C33.4681 96.4216 33.6715 96.637 33.8087 96.8937C33.9459 97.1505 34.0118 97.4393 33.9996 97.7301C33.9196 98.3601 33.3496 98.9401 32.4296 99.3301C31.6677 99.639 30.8516 99.792 30.0296 99.7801C28.8847 99.818 27.7563 99.5001 26.7996 98.8701C26.5474 98.7235 26.3397 98.5112 26.1988 98.2558C26.0579 98.0005 25.9891 97.7116 25.9996 97.4201C26.1004 97.0403 26.2981 96.6932 26.5733 96.4128C26.8485 96.1323 27.1918 95.9281 27.5696 95.8201C28.3401 95.5041 29.1668 95.3476 29.9996 95.3601ZM29.9996 95.2501C29.1574 95.2414 28.3217 95.3976 27.5396 95.7101C25.7296 96.4801 25.3596 97.9401 26.7196 98.9701C27.6964 99.615 28.8497 99.9401 30.0196 99.9001C30.8584 99.9081 31.6907 99.7518 32.4696 99.4401C34.2796 98.6701 34.6496 97.2101 33.2896 96.1801C32.3164 95.5353 31.1663 95.2102 29.9996 95.2501Z" fill="#383838"></path><path id="Vector_57" d="M30.1196 100C38.4296 96.49 50.2396 97.46 56.4696 102.18C62.6996 106.9 60.9996 113.52 52.7096 117C44.4196 120.48 32.5896 119.54 26.3496 114.83C20.1096 110.12 21.7996 103.47 30.1196 100Z" fill="#383838"></path><path id="Vector_58" d="M30.2896 100.25C38.2896 96.8502 49.7396 97.7802 55.7696 102.34C61.7996 106.9 60.1696 113.34 52.1196 116.76C44.0696 120.18 32.6696 119.23 26.6396 114.67C20.6096 110.11 22.2396 103.66 30.2896 100.25Z" fill="#C1C8CC"></path><path id="Vector_59" d="M41.2493 118.88C35.6793 118.88 30.1793 117.45 26.5893 114.74C23.9393 112.74 22.6493 110.26 22.9593 107.74C23.3393 104.74 25.9593 101.96 30.2593 100.15C38.3093 96.7401 49.7793 97.6801 55.8193 102.25C58.4693 104.25 59.7493 106.73 59.4493 109.25C59.0693 112.25 56.4493 115.04 52.1493 116.84C48.6863 118.233 44.9817 118.926 41.2493 118.88ZM41.1593 98.2901C37.4495 98.2359 33.7656 98.9155 30.3193 100.29C26.1193 102.07 23.4893 104.78 23.1293 107.74C22.8293 110.18 24.1293 112.6 26.6893 114.57C32.6893 119.1 44.0793 120.03 52.0893 116.64C56.2893 114.86 58.9093 112.14 59.2793 109.18C59.5793 106.75 58.2793 104.33 55.7193 102.36C52.1593 99.7101 46.6893 98.2901 41.1593 98.2901Z" fill="#383838"></path><path id="Vector_60" d="M33.5498 102.1C39.1898 99.71 47.1898 100.37 51.4198 103.57C55.6498 106.77 54.4998 111.29 48.8598 113.68C43.2198 116.07 35.2198 115.41 30.9998 112.21C26.7798 109.01 27.9098 104.49 33.5498 102.1Z" fill="#C4161C"></path><path id="Vector_61" d="M41.2098 110.16C40.0531 110.195 38.914 109.87 37.9498 109.23C37.6966 109.074 37.4904 108.852 37.3531 108.588C37.2158 108.323 37.1524 108.027 37.1698 107.73C37.2711 107.342 37.4706 106.986 37.749 106.697C38.0275 106.408 38.3755 106.196 38.7598 106.08C39.5347 105.767 40.3641 105.611 41.1998 105.62C42.3547 105.589 43.4917 105.91 44.4598 106.54C44.7131 106.699 44.9191 106.923 45.0563 107.188C45.1935 107.454 45.2569 107.752 45.2398 108.05C45.1376 108.439 44.9366 108.796 44.6563 109.085C44.3761 109.374 44.0259 109.586 43.6398 109.7C42.8687 110.014 42.0424 110.171 41.2098 110.16Z" fill="white"></path><path id="Vector_62" d="M41.2 105.68C42.3416 105.644 43.4664 105.962 44.42 106.59C44.6659 106.741 44.8669 106.956 45.0023 107.21C45.1377 107.465 45.2025 107.752 45.19 108.04C45.088 108.421 44.8901 108.768 44.6152 109.05C44.3403 109.332 43.9976 109.539 43.62 109.65C42.8535 109.955 42.0349 110.108 41.21 110.1C40.0684 110.137 38.9436 109.819 37.99 109.19C37.7441 109.039 37.5431 108.825 37.4077 108.57C37.2723 108.315 37.2075 108.029 37.22 107.74C37.322 107.36 37.5199 107.012 37.7948 106.73C38.0697 106.448 38.4124 106.242 38.79 106.13C39.5565 105.825 40.3751 105.672 41.2 105.68ZM41.2 105.57C40.3578 105.561 39.5221 105.718 38.74 106.03C36.93 106.8 36.56 108.25 37.92 109.28C38.8938 109.924 40.0434 110.249 41.21 110.21C42.0522 110.219 42.8879 110.063 43.67 109.75C45.48 108.98 45.85 107.53 44.49 106.5C43.5163 105.857 42.3666 105.532 41.2 105.57Z" fill="#383838"></path></g></g><defs><linearGradient id="paint0_linear_10150_20345" x1="44.3798" y1="104.75" x2="58.5998" y2="80.1202" gradientUnits="userSpaceOnUse"><stop stop-color="#CCCFD3"></stop><stop offset="1" stop-color="#B2B1B8" stop-opacity="0"></stop></linearGradient><linearGradient id="paint1_linear_10150_20345" x1="90.6102" y1="92.1701" x2="114.09" y2="51.5101" gradientUnits="userSpaceOnUse"><stop stop-color="#CCCFD3"></stop><stop offset="1" stop-color="#B2B1B8" stop-opacity="0"></stop></linearGradient><clipPath id="clip0_10150_20345"><rect width="160" height="133" fill="white"></rect></clipPath></defs></svg>