<svg xmlns="http://www.w3.org/2000/svg" width="21" height="20" fill="none"><path fill="url(#a)" d="M4.942 0c.416 0 .753.324.753.724v1.46c.668-.012 1.417-.012 2.26-.012h4.015c.842 0 1.591 0 2.259.013V.725c0-.4.337-.725.753-.725s.753.324.753.724V2.25c1.445.111 2.394.384 3.09 1.055.698.67.982 1.582 1.097 2.972l.08.724h-20v-.724c.116-1.39.4-2.302 1.097-2.972.697-.67 1.645-.944 3.09-1.055V.724c0-.4.337-.724.753-.724Z"></path><path fill="url(#b)" d="M20.002 12v-2c0-.839-.004-2.335-.017-3H.011c-.013.665-.01 2.161-.01 3v2c0 3.771 0 5.657 1.172 6.828C2.345 20 4.23 20 8.001 20h4c3.772 0 5.657 0 6.829-1.172 1.172-1.171 1.172-3.057 1.172-6.828Z"></path><path fill="#fff" d="M16.002 15a1 1 0 1 1-2 0 1 1 0 0 1 2 0ZM16.002 11a1 1 0 1 1-2 0 1 1 0 0 1 2 0ZM11.002 15a1 1 0 1 1-2 0 1 1 0 0 1 2 0ZM11.002 11a1 1 0 1 1-2 0 1 1 0 0 1 2 0ZM6.002 15a1 1 0 1 1-2 0 1 1 0 0 1 2 0ZM6.002 11a1 1 0 1 1-2 0 1 1 0 0 1 2 0Z"></path><defs><linearGradient id="a" x1="13.218" x2="-2.546" y1="13.02" y2="-.282" gradientUnits="userSpaceOnUse"><stop offset=".062" stop-color="#AB090E"></stop><stop offset=".349" stop-color="#CB0F15"></stop></linearGradient><linearGradient id="b" x1="13.218" x2="-9.152" y1="31.18" y2="21.016" gradientUnits="userSpaceOnUse"><stop offset=".062" stop-color="#AB090E"></stop><stop offset=".349" stop-color="#CB0F15"></stop></linearGradient></defs></svg>